HIERARCHY
ROOT Hips
{
  OFFSET 267.745 86.9975 -272.335
  CHANNELS 6 Xposition Yposition Zposition Zrotation Xrotation Yrotation
  JOINT LeftUpLeg
  {
    OFFSET 8.64259 1.95398 -2.38835
    CHANNELS 3 Zrotation Xrotation Yrotation
    JOINT LeftLeg
    {
      OFFSET 43.7702 0 0
      CHANNELS 3 Zrotation Xrotation Yrotation
      JOINT LeftFoot
      {
        OFFSET 40.6238 0 0
        CHANNELS 3 Zrotation Xrotation Yrotation
        JOINT LeftToeBase
        {
          OFFSET 12.7242 0 0
          CHANNELS 3 Zrotation Xrotation Yrotation
          End Site
          {
            OFFSET 0 0 0
          }
        }
      }
    }
  }
  JOINT RightUpLeg
  {
    OFFSET -8.2249 1.95398 -2.59336
    CHANNELS 3 Zrotation Xrotation Yrotation
    JOINT RightLeg
    {
      OFFSET 43.5653 0 0
      CHANNELS 3 Zrotation Xrotation Yrotation
      JOINT RightFoot
      {
        OFFSET 40.6238 0 0
        CHANNELS 3 Zrotation Xrotation Yrotation
        JOINT RightToeBase
        {
          OFFSET 12.7242 0 0
          CHANNELS 3 Zrotation Xrotation Yrotation
          End Site
          {
            OFFSET 0 0 0
          }
        }
      }
    }
  }
  JOINT Spine
  {
    OFFSET 0.165834 0.87714 6.61349
    CHANNELS 3 Zrotation Xrotation Yrotation
    JOINT Spine1
    {
      OFFSET 7.38963 1.71661e-005 0
      CHANNELS 3 Zrotation Xrotation Yrotation
      JOINT Spine2
      {
        OFFSET 11.9445 1.14441e-005 0
        CHANNELS 3 Zrotation Xrotation Yrotation
        JOINT Spine3
        {
          OFFSET 14.7254 4.19617e-005 0
          CHANNELS 3 Zrotation Xrotation Yrotation
          JOINT Spine4
          {
            OFFSET 10.9679 0 0
            CHANNELS 3 Zrotation Xrotation Yrotation
            JOINT RightShoulder
            {
              OFFSET 2.46616 -1.6653 3.69651
              CHANNELS 3 Zrotation Xrotation Yrotation
              JOINT RightArm
              {
                OFFSET 13.0012 0 0
                CHANNELS 3 Zrotation Xrotation Yrotation
                JOINT RightForeArm
                {
                  OFFSET 28.7848 1.52588e-005 0
                  CHANNELS 3 Zrotation Xrotation Yrotation
                  JOINT RightHand
                  {
                    OFFSET 26.5688 1.52588e-005 0
                    CHANNELS 3 Zrotation Xrotation Yrotation
                    End Site
                    {
                      OFFSET 0 0 0
                    }
                  }
                }
              }
            }
            JOINT LeftShoulder
            {
              OFFSET 2.38034 -1.29275 -3.7523
              CHANNELS 3 Zrotation Xrotation Yrotation
              JOINT LeftArm
              {
                OFFSET 16.3182 6.10352e-005 0
                CHANNELS 3 Zrotation Xrotation Yrotation
                JOINT LeftForeArm
                {
                  OFFSET 27.0901 0 0
                  CHANNELS 3 Zrotation Xrotation Yrotation
                  JOINT LeftHand
                  {
                    OFFSET 24.5451 1.52588e-005 0
                    CHANNELS 3 Zrotation Xrotation Yrotation
                    End Site
                    {
                      OFFSET 0 0 0
                    }
                  }
                }
              }
            }
            JOINT Neck
            {
              OFFSET 5.0226 -0.0266342 0
              CHANNELS 3 Zrotation Xrotation Yrotation
              JOINT Head
              {
                OFFSET 6.69364 2.86102e-005 0
                CHANNELS 3 Zrotation Xrotation Yrotation
                End Site
                {
                  OFFSET 0 0 0
                }
              }
            }
          }
        }
      }
    }
  }
}
MOTION
Frames:	13
Frame Time:	0.0416667
13.4154 96.813 -28.2844 -141.073 -87.4547 -139.913 -174.275 2.56791 91.0235 -15.3983 3.89808 2.02893 67.8942 3.88324 -0.956613 28.9111 -0.458561 3.81849 175.746 2.26024 89.4001 -14.4799 -9.85337 0.0185549 69.0095 -6.07203 0.475394 25.1355 0.769415 1.12872 -0.30695 7.06003 -90.2313 12.7528 -0.720148 -0.36799 1.08187 -0.736046 -0.344784 -21.454 -0.573609 -0.575852 -1.4413 -0.573611 -0.575863 102.89 -50.2049 -81.0389 31.4723 -6.17265 -8.07504 1.28356 -16.2958 -12.2072 -12.665 -0.914644 3.30365 -79.2563 -49.8514 94.7184 -35.1939 0.00398324 -19.0936 -2.42567 41.8752 -0.00486272 1.17993 -0.190756 -7.60096 9.51144 1.04349 2.05563 -19.4867 1.08351 -3.80161 
13.4024 96.8145 -28.2508 -141.039 -87.5875 -140.056 -174.368 2.36584 90.8476 -14.7464 4.16936 1.99518 67.772 4.31631 0.21946 29.3567 -0.285808 1.96951 175.655 2.43478 89.2207 -14.6298 -9.98368 0.0465955 68.9302 -6.04662 0.327918 25.7581 0.656862 0.820831 -0.332361 7.02958 -90.2306 12.8134 -0.770369 -0.370565 1.14266 -0.785858 -0.334693 -21.3934 -0.62388 -0.583428 -1.38073 -0.623871 -0.58343 102.849 -50.1697 -81.1027 31.4916 -6.35238 -7.94186 1.92687 -14.2068 -12.0849 -14.8797 -0.870291 1.62175 -79.021 -50.0258 95.0803 -35.1875 -0.0351098 -18.9102 -2.45432 41.9156 -0.0021743 0.650725 -0.165117 -7.20556 8.85318 1.18687 1.92937 -18.7357 1.15918 -3.18454 
13.4281 96.821 -28.229 -140.721 -87.719 -139.616 -174.399 2.4624 90.9201 -14.7183 4.0687 2.0674 67.82 4.29344 0.0201507 29.217 -0.280559 2.03538 175.71 2.4765 89.3472 -14.5112 -9.82781 0.0683292 68.8467 -5.98389 0.344436 25.5631 0.69748 0.882865 -0.331549 7.03405 -90.2512 12.8066 -0.778533 -0.408794 1.13578 -0.795767 -0.374136 -21.4001 -0.61968 -0.623871 -1.38744 -0.619689 -0.623882 102.859 -50.0574 -81.0857 31.4752 -6.55422 -7.88672 1.85035 -14.2476 -12.3017 -14.4341 -0.880425 1.94112 -79.0161 -50.271 95.0936 -34.8673 0.11987 -18.9427 -2.52757 40.8552 -0.0615605 0.691368 -0.152938 -6.70409 9.20318 0.748783 1.58584 -18.6935 0.70171 -2.44662 
13.439 96.8057 -28.1998 -139.795 -87.7656 -138.572 -174.346 2.66662 91.0238 -15.0585 4.17622 2.0638 68.0175 4.34304 0.0624016 29.0589 -0.28752 2.22559 175.786 2.25022 89.4676 -14.1068 -9.50546 0.0256333 69.2224 -6.19553 0.779206 24.8829 0.877003 0.756044 -0.323608 7.03459 -90.2763 12.8172 -0.774808 -0.459314 1.14639 -0.79427 -0.424765 -21.3892 -0.600952 -0.670939 -1.37653 -0.600946 -0.670938 102.856 -49.8418 -81.0879 31.7192 -6.23672 -7.88293 1.62086 -14.8084 -12.2055 -13.8801 -0.804349 1.58666 -78.954 -50.4505 95.1916 -34.835 0.00906448 -18.921 -2.42148 41.202 -0.149576 0.343404 -0.152089 -6.9796 9.24825 0.717999 1.69068 -18.5016 0.62447 -2.29645 
13.4422 96.8009 -28.1849 -141.116 -87.8294 -139.841 -174.291 2.65707 91.1115 -14.9606 4.53083 2.03519 67.8247 4.32557 0.260812 29.5032 -0.34478 2.37053 175.799 2.24126 89.5228 -14.0705 -9.42414 0.0438744 69.1171 -6.13899 0.704056 24.8348 0.842207 1.1235 -0.336087 7.03503 -90.2845 12.8214 -0.803474 -0.471844 1.15061 -0.82346 -0.436037 -21.3852 -0.624524 -0.691509 -1.37254 -0.624522 -0.691512 102.809 -49.7869 -81.1597 31.8436 -6.20858 -7.82977 1.63557 -14.8605 -12.1553 -14.1731 -0.814313 1.52395 -78.9162 -50.398 95.2471 -34.9246 -0.151317 -18.8435 -2.4456 41.287 -0.055 0.167704 -0.151861 -7.14086 9.27854 0.725085 1.61979 -18.6455 0.636666 -2.19664 
13.4516 96.8222 -28.1907 -139.328 -87.7671 -138.074 -174.318 2.61713 91.0538 -14.915 4.23438 2.05284 67.9528 4.36483 0.173573 29.1197 -0.268722 2.01111 175.815 2.36341 89.4792 -14.2743 -9.49503 -0.00109546 69.024 -5.89538 0.966299 25.219 0.797956 0.734781 -0.330181 7.03517 -90.2853 12.8046 -0.792142 -0.475533 1.13386 -0.812304 -0.440221 -21.4019 -0.612612 -0.691624 -1.38923 -0.612613 -0.691627 102.797 -49.7442 -81.1786 31.9513 -6.11452 -7.8482 1.52029 -14.9134 -12.2602 -13.8693 -0.781188 1.39292 -78.8818 -50.4036 95.2998 -35.0148 -0.277758 -18.8115 -2.29638 41.3637 -0.144545 -0.176969 -0.152399 -7.13495 9.4856 0.750047 1.77425 -18.8609 0.655982 -2.41139 
13.4574 96.8112 -28.1894 -140.888 -87.7971 -139.601 -174.391 2.64935 91.0583 -14.9923 4.04556 2.13963 67.9504 4.25767 -0.147331 29.325 -0.304803 2.15852 175.763 2.24391 89.5039 -14.1041 -9.49774 0.0760671 69.0826 -6.08774 0.74833 24.9638 0.86913 0.659979 -0.332123 7.03406 -90.2936 12.8042 -0.799995 -0.491259 1.13344 -0.820848 -0.455583 -21.4023 -0.615368 -0.708981 -1.38961 -0.615373 -0.708989 102.832 -49.724 -81.1232 31.9869 -6.08159 -7.88045 1.53412 -15.0138 -12.1419 -14.0744 -0.776244 1.25045 -78.9198 -50.3948 95.242 -34.9662 -0.150249 -18.7776 -2.37162 41.131 -0.123579 0.430567 -0.15347 -6.81647 9.3562 0.707818 1.77372 -18.7386 0.608553 -2.36878 
13.433 96.8122 -28.1853 -138.604 -87.7178 -137.405 -174.33 2.59393 91.0073 -14.9236 4.13481 2.03686 67.9149 4.32408 0.139088 29.1283 -0.282142 2.12341 175.768 2.39189 89.4199 -14.3459 -9.60649 0.030311 69.0176 -5.96745 0.784803 25.5051 0.731107 0.71194 -0.329797 7.03404 -90.2826 12.797 -0.790165 -0.470958 1.12624 -0.810128 -0.435732 -21.4095 -0.612096 -0.686662 -1.39685 -0.6121 -0.686668 102.787 -49.8083 -81.1953 31.8823 -6.2615 -7.8884 1.52321 -15.07 -12.2328 -14.0257 -0.785423 1.35225 -78.8301 -50.3277 95.3766 -34.9785 -0.0552041 -18.8299 -2.368 41.0577 -0.173779 0.779251 -0.155047 -6.7175 9.37396 0.759584 1.74582 -18.7492 0.672791 -2.4251 
13.4582 96.8201 -28.1862 -140.97 -87.8424 -139.649 -174.295 2.66108 91.1283 -14.9422 4.44551 2.06217 67.7886 4.30505 0.272624 29.5539 -0.293299 1.86245 175.884 2.24279 89.6009 -14.0621 -9.4019 -0.0296667 69.006 -6.0156 0.771576 25.1099 0.845925 0.562196 -0.336174 7.03445 -90.2973 12.8006 -0.809827 -0.497671 1.12983 -0.830955 -0.461554 -21.4059 -0.622829 -0.718046 -1.39323 -0.622832 -0.718058 102.87 -49.7991 -81.0647 31.8481 -6.35635 -7.99827 1.53443 -15.256 -12.14 -14.1023 -0.799959 1.43791 -78.9021 -50.4903 95.2708 -34.8099 -0.168792 -18.882 -2.30657 41.1601 -0.179722 0.781828 -0.158433 -6.88842 8.97052 0.707109 1.35474 -18.2018 0.643887 -1.96393 
13.4586 96.8084 -28.1972 -139.74 -87.7406 -138.435 -174.296 2.63803 91.116 -14.9873 4.12107 2.06703 67.9968 4.30032 -0.0637444 29.1013 -0.274188 2.07663 175.812 2.33625 89.5193 -14.2997 -9.4664 0.0214823 69.1558 -6.01515 0.942745 24.912 0.892694 0.576064 -0.333827 7.03637 -90.2908 12.7941 -0.80208 -0.485876 1.12328 -0.82269 -0.450116 -21.4124 -0.618969 -0.704472 -1.39979 -0.618981 -0.704482 102.801 -49.8072 -81.1732 31.882 -6.30817 -7.98537 1.60515 -15.044 -12.1124 -14.2514 -0.79738 1.34446 -78.831 -50.2714 95.3744 -35.1215 -0.241177 -18.8413 -2.18064 41.0638 -0.221402 1.14407 -0.163669 -6.74301 9.18324 0.643482 1.62633 -18.5524 0.566547 -2.28864 
13.4611 96.8087 -28.2018 -140.247 -87.7456 -138.962 -174.273 2.67232 91.1148 -15.084 4.27506 2.03521 67.9522 4.29282 0.0393929 29.4195 -0.315926 2.17962 175.844 2.32688 89.524 -14.2879 -9.40862 -0.0207304 69.118 -5.95301 0.976062 25.0615 0.863591 0.515522 -0.333694 7.03843 -90.2862 12.7841 -0.799607 -0.47725 1.11332 -0.819839 -0.441602 -21.4224 -0.619215 -0.695506 -1.40978 -0.619215 -0.695504 102.833 -49.8232 -81.1231 31.84 -6.30815 -8.04477 1.59334 -15.1846 -12.0865 -14.2516 -0.798733 1.35586 -78.8519 -50.3399 95.3438 -34.9584 -0.183403 -18.8572 -2.18136 41.0066 -0.309068 1.06587 -0.167609 -6.72336 9.18458 0.682601 1.45284 -18.5255 0.629632 -2.1852 
13.4573 96.8143 -28.2168 -137.509 -87.6326 -136.246 -174.273 2.59363 91.0748 -14.9662 4.12257 2.0263 67.9385 4.32417 0.155046 29.2005 -0.262472 1.89098 175.842 2.34463 89.494 -14.2742 -9.6644 -0.0231927 69.0679 -6.06658 0.766144 25.1653 0.818583 0.67337 -0.328573 7.04078 -90.2695 12.7747 -0.78147 -0.446306 1.10394 -0.800357 -0.411489 -21.4319 -0.61121 -0.660541 -1.41921 -0.611214 -0.660547 102.83 -50.021 -81.1309 31.665 -6.44686 -8.0696 1.71765 -14.7747 -12.1142 -14.1176 -0.791853 1.36201 -78.8125 -50.0487 95.3978 -35.3 -0.328377 -18.8087 -2.03937 41.087 -0.300771 1.03192 -0.16713 -6.90925 9.35725 0.599031 1.36244 -18.5339 0.578137 -2.28807 
13.4788 96.819 -28.2217 -137.433 -87.6977 -136.237 -174.303 2.59657 91.0032 -14.8522 4.21847 1.99723 67.7713 4.32587 0.376267 29.4565 -0.247875 1.53865 175.765 2.39068 89.3959 -14.2708 -9.68788 0.0281997 68.9524 -5.88177 0.892905 25.2864 0.838224 0.272486 -0.336836 7.04222 -90.2598 12.7868 -0.793195 -0.424788 1.116 -0.811116 -0.389471 -21.4199 -0.628861 -0.643537 -1.40729 -0.628864 -0.643543 102.796 -50.0727 -81.1848 31.7222 -6.27861 -7.96222 1.62424 -14.7987 -12.2175 -14.1033 -0.824228 1.64202 -78.7944 -49.978 95.4241 -35.3819 -0.339811 -18.757 -1.95878 41.1361 -0.40844 0.875021 -0.155905 -6.67635 9.51997 0.589837 1.42331 -18.8097 0.58384 -2.47866 
